<?xml version="1.0" encoding="UTF-8" standalone="no"?>
<svg xmlns="http://www.w3.org/2000/svg" height="512" width="512" version="1.1" viewBox="0 0 135.46666 135.46666">
 <defs>
  <linearGradient id="a" x1="25.41" gradientUnits="userSpaceOnUse" y1="195.8" gradientTransform="translate(-26.46)" x2="25.41" y2="330.8">
   <stop stop-color="#f1f0e9" offset="0"/>
   <stop stop-color="#f4f3ed" offset="1"/>
  </linearGradient>
 </defs>
 <g transform="translate(33.87 -195.4)">
  <rect style="color:#000000" ry=".000007716" height="135.5" width="135.5" y="195.4" x="-33.87" fill="#f9f8f5"/>
  <path style="color:#000000" fill="#c0cbe7" d="m42.36 266.8h42.07v4.007h-42.07z"/>
  <path style="color:#000000" fill="#c0cbe7" d="m42.36 277.4h42.07v4.007h-42.07z"/>
  <path style="color:#000000" fill="#c0cbe7" d="m42.36 287.6h23.01v4.007h-23.01z"/>
  <path style="color:#000000" fill="#869ed9" d="m42.36 234.4h42.07v4.007h-42.07z"/>
  <path style="color:#000000" fill="#869ed9" d="m42.36 245.3h42.07v4.007h-42.07z"/>
  <path style="font-variant-ligatures:none;shape-padding:0;color-rendering:auto;font-variant-alternates:normal;text-decoration-color:#000000;color:#000000;font-variant-numeric:normal;mix-blend-mode:normal;image-rendering:auto;text-indent:0;solid-color:#000000;font-variant-position:normal;text-decoration-line:none;font-feature-settings:normal;font-variant-caps:normal;isolation:auto;white-space:normal;shape-rendering:auto;text-transform:none;text-decoration-style:solid" stroke-width="1.519" fill="#e24a3f" d="m42.18 264.1 20.77-11.43-0.109-52.63h-20.62z"/>
  <rect style="color:#000000" ry=".000007716" height="135.5" width="67.16" y="195.4" x="-33.87" fill="url(#a)"/>
  <rect style="color:#000000" ry=".000007716" height="57.08" width="42.37" y="234.5" x="-16.96" fill="#ced6e5"/>
  <path fill="#94a8d9" d="m4.175 246.2c-3.345 0.00029-6.579 1.411-8.944 3.901s-3.704 5.894-3.704 9.414v0.0107c0.00542 1.355 0.1271 2.915 0.766 4.497 1.666 4.124 4.163 7.327 6.444 9.803h-0.00433c0.6298 0.7194 1.348 1.45 2.063 2.152h6.675c0.7246-0.7085 1.465-1.444 2.151-2.157h-0.0054c2.28-2.475 4.776-5.676 6.442-9.798 0.6388-1.582 0.761-3.141 0.766-4.497v-0.0107c0-3.521-1.34-6.925-3.705-9.414s-5.598-3.9-8.943-3.901h-0.00108z"/>
  <path fill="#7591d3" d="m15.55 272.2c-1.499 2.165-3.131 4.042-4.686 5.646h0.0054c-2.848 2.813-6.678 6.172-6.678 6.172s-4.06-3.299-6.703-6.168h0.00542c-1.554-1.602-3.184-3.475-4.682-5.637-0.06688 0.0256-0.1354 0.0469-0.2021 0.073-3.609 1.368-6.795 3.187-9.56 5.456v13.82h42.26v-13.82c-2.765-2.27-5.936-4.089-9.515-5.456-0.07894-0.0305-0.1599-0.0558-0.2391-0.0857z"/>
  <path fill-rule="evenodd" fill="#718dd2" d="m-3.513 251.7s5.145 4.112 8.343 4.995c5.763 1.592 8.233 1.098 8.233 1.098s0.2088 1.618 1.098 3.019c2 3.152 1.895 3.171 1.895 3.171s1.873-4.936-0.1657-10.36c-1.094-2.909-5.366-7.529-11.72-7.43-7.728 0.1204-11.14 5.711-12.23 10.06-1.087 4.328 0.235 7.519 0.235 7.519s1.943-2.295 2.986-5.259 1.317-6.806 1.317-6.806z"/>
 </g>
</svg>
