<?xml version="1.0" encoding="UTF-8" standalone="no"?>
<svg style="enable-background:new" xmlns="http://www.w3.org/2000/svg" height="1024" width="1024" version="1.1" xmlns:xlink="http://www.w3.org/1999/xlink" viewBox="0 0 1024 1024">
 <path style="color:#000000" d="m538.2 515.4h130.3v12.41h-130.3z" stroke-width="3.097" fill="#c0cbe7"/>
 <path style="color:#000000" d="m538.2 548.4h130.3v12.41h-130.3z" stroke-width="3.097" fill="#c0cbe7"/>
 <path style="color:#000000" d="m538.2 579.8h71.27v12.41h-71.3z" stroke-width="3.097" fill="#c0cbe7"/>
 <path style="color:#000000" d="m538.2 415.2h130.3v12.41h-130.3z" stroke-width="3.097" fill="#869ed9"/>
 <path style="color:#000000" d="m538.2 448.9h130.3v12.41h-130.3z" stroke-width="3.097" fill="#869ed9"/>
 <path style="font-variant-ligatures:none;shape-padding:0;color-rendering:auto;font-variant-alternates:normal;text-decoration-color:#000000;color:#000000;font-variant-numeric:normal;mix-blend-mode:normal;image-rendering:auto;text-indent:0;solid-color:#000000;font-variant-position:normal;text-decoration-line:none;font-feature-settings:normal;font-variant-caps:normal;isolation:auto;white-space:normal;shape-rendering:auto;text-transform:none;text-decoration-style:solid" d="m537.7 507.1 64.33-35.4-0.3376-163h-63.85z" stroke-width="4.705" fill="#e24a3f"/>
 <rect style="color:#000000" ry=".00002390" height="176.8" width="131.2" y="415.4" x="354.5" stroke-width="3.097" fill="#ced6e5"/>
 <path d="m419.9 451.6c-10.36 0.00082-20.38 4.371-27.7 12.08-7.325 7.712-11.47 18.25-11.47 29.16v0.0331c0.0168 4.197 0.3937 9.028 2.372 13.93 5.159 12.77 12.89 22.69 19.96 30.36h-0.0134c1.951 2.228 4.174 4.491 6.39 6.666h20.67c2.244-2.194 4.537-4.471 6.662-6.68h-0.0167c7.061-7.665 14.79-17.58 19.95-30.35 1.979-4.899 2.357-9.729 2.372-13.93v-0.0331c0-10.9-4.151-21.45-11.48-29.16-7.323-7.709-17.34-12.08-27.7-12.08h-0.003z" stroke-width="3.097" fill="#94a8d9"/>
 <path d="m455.2 532.3c-4.643 6.706-9.696 12.52-14.51 17.49h0.0167c-8.822 8.712-20.68 19.11-20.68 19.11s-12.57-10.22-20.76-19.1h0.0168c-4.811-4.961-9.861-10.76-14.5-17.46-0.2071 0.0793-0.4193 0.1452-0.6259 0.2261-11.18 4.236-21.04 9.869-29.61 16.9v42.79h130.9v-42.79c-8.562-7.03-18.38-12.66-29.47-16.9-0.2445-0.0945-0.4953-0.1728-0.7406-0.2654z" stroke-width="3.097" fill="#7591d3"/>
 <path d="m396.1 468.8s15.94 12.73 25.84 15.47c17.85 4.93 25.5 3.4 25.5 3.4s0.6468 5.012 3.4 9.35c6.195 9.761 5.869 9.819 5.869 9.819s5.801-15.29-0.5131-32.09c-3.387-9.01-16.62-23.32-36.28-23.01-23.93 0.373-34.49 17.69-37.86 31.14-3.368 13.4 0.7277 23.29 0.7277 23.29s6.018-7.109 9.248-16.29c3.23-9.18 4.08-21.08 4.08-21.08z" fill-rule="evenodd" stroke-width="3.097" fill="#718dd2"/>
</svg>
