<?xml version="1.0" encoding="UTF-8" standalone="no"?>
<!-- Created with Inkscape (http://www.inkscape.org/) -->

<svg
   xmlns:dc="http://purl.org/dc/elements/1.1/"
   xmlns:cc="http://creativecommons.org/ns#"
   xmlns:rdf="http://www.w3.org/1999/02/22-rdf-syntax-ns#"
   xmlns:svg="http://www.w3.org/2000/svg"
   xmlns="http://www.w3.org/2000/svg"
   xmlns:sodipodi="http://sodipodi.sourceforge.net/DTD/sodipodi-0.dtd"
   xmlns:inkscape="http://www.inkscape.org/namespaces/inkscape"
   width="90"
   height="90"
   id="svg3140"
   version="1.1"
   inkscape:version="0.48+devel r12409"
   sodipodi:docname="birthday-cake.svg">
  <defs
     id="defs3142" />
  <sodipodi:namedview
     id="base"
     pagecolor="#ffffff"
     bordercolor="#666666"
     borderopacity="1.0"
     inkscape:pageopacity="0.0"
     inkscape:pageshadow="2"
     inkscape:zoom="15.543123"
     inkscape:cx="36.968119"
     inkscape:cy="28.983869"
     inkscape:document-units="px"
     inkscape:current-layer="g4978"
     showgrid="true"
     inkscape:window-width="1920"
     inkscape:window-height="1029"
     inkscape:window-x="0"
     inkscape:window-y="24"
     inkscape:window-maximized="1"
     fit-margin-top="0"
     fit-margin-left="0"
     fit-margin-right="0"
     fit-margin-bottom="0"
     inkscape:snap-bbox="true"
     inkscape:bbox-paths="true"
     inkscape:bbox-nodes="true"
     inkscape:snap-bbox-edge-midpoints="true"
     inkscape:snap-bbox-midpoints="true"
     inkscape:object-paths="true"
     inkscape:snap-intersection-paths="true"
     inkscape:object-nodes="true"
     inkscape:snap-smooth-nodes="true"
     inkscape:snap-midpoints="true"
     inkscape:snap-object-midpoints="true"
     inkscape:snap-center="true">
    <inkscape:grid
       type="xygrid"
       id="grid3178"
       empspacing="6"
       visible="true"
       enabled="true"
       snapvisiblegridlinesonly="true"
       originx="0px"
       originy="-1.7382813e-05px" />
  </sodipodi:namedview>
  <metadata
     id="metadata3145">
    <rdf:RDF>
      <cc:Work
         rdf:about="">
        <dc:format>image/svg+xml</dc:format>
        <dc:type
           rdf:resource="http://purl.org/dc/dcmitype/StillImage" />
        <dc:title></dc:title>
      </cc:Work>
    </rdf:RDF>
  </metadata>
  <g
     inkscape:label="Layer 1"
     inkscape:groupmode="layer"
     id="layer1"
     transform="translate(0,-962.36218)">
    <rect
       style="color:#000000;fill:none;stroke:none;stroke-width:7.5;marker:none;visibility:visible;display:inline;overflow:visible;enable-background:accumulate"
       id="rect4198"
       width="90"
       height="90"
       x="0"
       y="962.36218" />
    <g
       id="g4978"
       transform="translate(-60,548.00002)">
      <rect
         style="color:#000000;fill:none;stroke:none;stroke-width:6;marker:none;visibility:visible;display:inline;overflow:visible;enable-background:accumulate"
         id="rect3032"
         width="90"
         height="90"
         x="0"
         y="1.7382814e-05"
         transform="translate(60,414.36216)" />
      <rect
         style="opacity:0.05;color:#000000;fill:none;stroke:none;stroke-width:2;marker:none;visibility:visible;display:inline;overflow:visible;enable-background:accumulate"
         id="rect3844"
         width="90"
         height="90.000015"
         x="60.000004"
         y="-504.36215"
         transform="scale(1,-1)" />
      <path
         style="fill:#808080;fill-opacity:1"
         d="m 36,39.000017 c -26.9999984,0 -29.9999997,0 -30,17.999997 l 0,0 0,2e-6 0,15.000004 c 0,18 3,18 30,18 l 18,0 c 27,0 30.599667,-0.01 30,-18 l 0,-15.000003 0,-10e-7 C 84,39.000017 81,39.000017 54,39.000017 z m 0,6 18,0 c 23.999997,0 24,0 24,11.999997 l 0,15.000006 c 0,11.999997 0,12 -24,12 l -18,0 c -24,0 -24.399778,-0.0067 -24,-12 l 0,-15.000003 0,-10e-7 C 12,45.000017 12.000001,45.000017 36,45.000017 Z"
         transform="translate(60,414.36216)"
         id="path3759"
         inkscape:connector-curvature="0"
         sodipodi:nodetypes="scccsssccsssssccssccss" />
      <rect
         style="color:#000000;fill:#808080;fill-opacity:1;fill-rule:nonzero;stroke:none;stroke-width:6;marker:none;visibility:visible;display:inline;overflow:visible;enable-background:accumulate"
         id="rect4122"
         width="6"
         height="11.999995"
         x="102"
         y="438.36218" />
      <path
         style="color:#000000;fill:#808080;fill-opacity:1;fill-rule:nonzero;stroke:none;stroke-width:6;marker:none;visibility:visible;display:inline;overflow:visible;enable-background:accumulate"
         d="M 45 2e-05 C 45 2e-05 39 5.25002 39 13.12502 C 39 21.00002 45 21.00002 45 21.00002 C 45 21.00002 51 21.00002 51 13.12502 C 51 5.25002 45 2e-05 45 2e-05 z "
         transform="translate(60,414.36216)"
         id="path4124" />
      <rect
         y="438.36218"
         x="84"
         height="11.999995"
         width="6"
         id="rect4129"
         style="color:#000000;fill:#808080;fill-opacity:1;fill-rule:nonzero;stroke:none;stroke-width:6;marker:none;visibility:visible;display:inline;overflow:visible;enable-background:accumulate" />
      <path
         id="path4131"
         d="m 87,414.36218 c 0,0 -6,5.25 -6,13.125 0,7.875 6,7.875 6,7.875 0,0 6,0 6,-7.875 C 93,419.61218 87,414.36218 87,414.36218 Z"
         style="color:#000000;fill:#808080;fill-opacity:1;fill-rule:nonzero;stroke:none;stroke-width:6;marker:none;visibility:visible;display:inline;overflow:visible;enable-background:accumulate"
         inkscape:connector-curvature="0" />
      <rect
         style="color:#000000;fill:#808080;fill-opacity:1;fill-rule:nonzero;stroke:none;stroke-width:6;marker:none;visibility:visible;display:inline;overflow:visible;enable-background:accumulate"
         id="rect4133"
         width="6"
         height="11.999995"
         x="120"
         y="438.36218" />
      <path
         inkscape:connector-curvature="0"
         style="color:#000000;fill:#808080;fill-opacity:1;fill-rule:nonzero;stroke:none;stroke-width:6;marker:none;visibility:visible;display:inline;overflow:visible;enable-background:accumulate"
         d="m 123,414.36218 c 0,0 -6,5.25 -6,13.125 0,7.875 6,7.875 6,7.875 0,0 6,0 6,-7.875 C 129,419.61218 123,414.36218 123,414.36218 Z"
         id="path4135" />
      <path
         style="color:#000000;fill:#808080;fill-opacity:1;fill-rule:nonzero;stroke:none;stroke-width:6;marker:none;visibility:visible;display:inline;overflow:visible;enable-background:accumulate"
         d="m 69,480.36218 c 5.905948,0.12566 6,-9 12,-9 6,0 6,9 12,9 6,0 6,-9 12,-9 6,0 6,9 12,9 6,0 6,-9 12,-9 6,0 6,9 12,9 l 0,-18 -6,-6 -60,0 L 69,462.36218 Z"
         id="path4137"
         inkscape:connector-curvature="0"
         sodipodi:nodetypes="czzzzzcccccc" />
    </g>
  </g>
</svg>
