<?xml version="1.0" encoding="UTF-8" standalone="no"?>
<!-- Created with Inkscape (http://www.inkscape.org/) -->
<svg id="svg4874" xmlns:rdf="http://www.w3.org/1999/02/22-rdf-syntax-ns#" xmlns="http://www.w3.org/2000/svg" height="90" viewBox="0 0 90 90.000001" width="90" version="1.1" xmlns:cc="http://creativecommons.org/ns#" xmlns:dc="http://purl.org/dc/elements/1.1/">
 <metadata id="metadata4879">
  <rdf:RDF>
   <cc:Work rdf:about="">
    <dc:format>image/svg+xml</dc:format>
    <dc:type rdf:resource="http://purl.org/dc/dcmitype/StillImage"/>
    <dc:title/>
   </cc:Work>
  </rdf:RDF>
 </metadata>
 <g id="layer1" transform="translate(67.857 -84.505)">
  <g id="g4845" transform="matrix(0 -1 -1 0 373.51 516.51)">
   <g id="g1628" transform="matrix(0 -1 -1 0 572.36 615.36)">
    <g id="g1630" transform="matrix(1.875 0 0 1.875 -366 -1652.8)">
     <rect id="rect1632" style="opacity:.21171;fill:none" transform="translate(0 804.36)" height="48" width="48" y="152" x="288"/>
    </g>
    <path id="path1652" style="fill:#808080" d="m206 221.36 13-10.099-2.0588-4.208h-21.882l-2.06 4.21z"/>
    <path id="path4237" style="fill:#808080" d="m191 151.36c-10 0-15-0.0002-15 11.627v36.746c0 11.627 5 11.627 15 11.627h56c10 0 15 0.00021 15-11.627v-36.373c0-12-5-12-15-12zm3 21h25v6h-25zm0 12h50v6h-50z"/>
   </g>
  </g>
 </g>
</svg>
